<svg width="316" height="225" viewBox="0 0 316 225" fill="none" xmlns="http://www.w3.org/2000/svg">
<g clip-path="url(#clip0)">
<path d="M97.998 135.095H76.1543C77.0465 133.736 77.5674 132.114 77.5674 130.371C77.5674 127.6 76.2539 125.132 74.2186 123.552V117.152L75.1971 118.131C75.5785 118.512 76.0783 118.703 76.5781 118.703C77.0779 118.703 77.5777 118.512 77.9592 118.131L85.6365 110.454C86.0027 110.087 86.2086 109.591 86.2086 109.073C86.2086 108.555 86.0027 108.058 85.6365 107.692L77.9592 100.014C77.5928 99.648 77.0961 99.4422 76.5781 99.4422C76.0602 99.4422 75.5633 99.648 75.1971 100.014L74.2186 100.993V73.5469C74.2186 72.4684 73.3439 71.5938 72.2654 71.5938H66.0299V70.0457C66.0301 66.1607 62.8695 63 58.9844 63C55.0992 63 51.9387 66.1607 51.9387 70.0457V71.5938H44.1551V70.0457C44.1551 66.1607 40.9945 63 37.1094 63C33.2242 63 30.0637 66.1607 30.0637 70.0457V71.5938H22.2801V70.0457C22.2801 66.1607 19.1195 63 15.2344 63C11.3492 63 8.18867 66.1607 8.18867 70.0457V71.5938H1.95312C0.874609 71.5938 0 72.4684 0 73.5469V161.047C0 162.125 0.874609 163 1.95312 163H28.3209C29.3994 163 30.274 162.125 30.274 161.047C30.274 159.968 29.3994 159.094 28.3209 159.094H3.90625V75.5H18.3738V77.048C18.3738 78.7791 16.9654 80.1875 15.2344 80.1875C14.1559 80.1875 13.2812 81.0621 13.2812 82.1406C13.2812 83.2191 14.1559 84.0938 15.2344 84.0938C19.1195 84.0938 22.2801 80.933 22.2801 77.048V75.5H40.2488V77.048C40.2488 78.7791 38.8404 80.1875 37.1094 80.1875C36.0309 80.1875 35.1562 81.0621 35.1562 82.1406C35.1562 83.2191 36.0309 84.0938 37.1094 84.0938C40.9945 84.0938 44.1551 80.933 44.1551 77.048V75.5H62.1238V77.048C62.1238 78.7791 60.7154 80.1875 58.9844 80.1875C57.9059 80.1875 57.0312 81.0621 57.0312 82.1406C57.0312 83.2191 57.9059 84.0938 58.9844 84.0938C62.8695 84.0938 66.0301 80.933 66.0301 77.048V75.5H70.3125V104.899L67.5201 107.692C66.7574 108.454 66.7574 109.691 67.5201 110.454L70.3125 113.246V121.851C69.8645 121.779 69.4053 121.74 68.9371 121.74C64.1783 121.74 60.3066 125.612 60.3066 130.371C60.3066 132.114 60.8275 133.737 61.7197 135.095H50C48.9215 135.095 48.0469 135.97 48.0469 137.048C48.0469 146.342 52.9588 154.509 60.3221 159.094H45.8984C44.8199 159.094 43.9453 159.969 43.9453 161.047C43.9453 162.126 44.8199 163 45.8984 163H73.999C88.3092 163 99.9512 151.358 99.9512 137.048C99.9512 135.969 99.0766 135.095 97.998 135.095ZM12.0949 71.5938V70.0457C12.0949 68.3146 13.5033 66.9062 15.2344 66.9062C16.9654 66.9062 18.3738 68.3146 18.3738 70.0457V71.5938H12.0949ZM33.9699 71.5938V70.0457C33.9699 68.3146 35.3783 66.9062 37.1094 66.9062C38.8404 66.9062 40.2488 68.3146 40.2488 70.0457V71.5938H33.9699ZM55.8449 71.5938V70.0457C55.8449 68.3146 57.2533 66.9062 58.9844 66.9062C60.7154 66.9062 62.1238 68.3146 62.1238 70.0457V71.5938H55.8449ZM76.5783 104.158L81.4934 109.073L76.5783 113.988L71.6633 109.073L76.5783 104.158ZM64.2131 130.371C64.2131 127.766 66.3324 125.646 68.9373 125.646C71.5422 125.646 73.6615 127.766 73.6615 130.371C73.6615 132.976 71.5422 135.095 68.9373 135.095C66.3324 135.095 64.2131 132.975 64.2131 130.371ZM73.999 159.094C62.501 159.094 53.0307 150.246 52.0389 139.001H95.959C94.9674 150.246 85.4971 159.094 73.999 159.094V159.094Z" fill="black"/>
<path d="M81.8381 128.072C83.8475 130.082 86.5193 131.188 89.3611 131.188C92.2029 131.188 94.8746 130.082 96.8842 128.072C98.8937 126.063 100 123.391 100 120.549C100 117.708 98.8933 115.036 96.884 113.026C96.1211 112.264 94.8848 112.264 94.1217 113.026L81.8379 125.31C81.0752 126.073 81.0752 127.31 81.8381 128.072V128.072ZM95.2986 117.374C96.6594 119.921 96.267 123.165 94.1219 125.31C91.9771 127.455 88.7326 127.848 86.1855 126.487L95.2986 117.374Z" fill="black"/>
<path d="M53.8715 100.525C52.793 100.525 51.9184 101.399 51.9184 102.478V103.249C50.6236 103.631 49.4578 104.388 48.5732 105.453C47.2607 107.033 46.7242 109.098 47.1014 111.118L49.0426 121.514C49.4766 123.838 51.5072 125.525 53.8715 125.525C56.2358 125.525 58.2664 123.838 58.7004 121.514L60.6416 111.118C61.0188 109.098 60.4822 107.033 59.1697 105.453C58.2852 104.388 57.1193 103.631 55.8246 103.249V102.478C55.8246 101.399 54.9502 100.525 53.8715 100.525V100.525ZM56.1647 107.949C56.7326 108.633 56.9651 109.527 56.8018 110.401L54.8606 120.797C54.7717 121.273 54.3557 121.619 53.8717 121.619C53.3877 121.619 52.9717 121.273 52.8828 120.797L50.9416 110.401C50.7783 109.526 51.0107 108.633 51.5787 107.949C52.1469 107.265 52.9826 106.872 53.8719 106.872C54.7611 106.872 55.5965 107.265 56.1647 107.949V107.949Z" fill="black"/>
<path d="M15.8338 94.7578C15.4707 94.3926 14.9668 94.1855 14.4531 94.1855C13.9395 94.1855 13.4355 94.3926 13.0723 94.7578C12.709 95.1211 12.5 95.625 12.5 96.1387C12.5 96.6523 12.7088 97.1543 13.0723 97.5195C13.4355 97.8826 13.9395 98.0918 14.4531 98.0918C14.9668 98.0918 15.4707 97.8828 15.8338 97.5195C16.1971 97.1543 16.4062 96.6523 16.4062 96.1387C16.4062 95.625 16.1973 95.1211 15.8338 94.7578Z" fill="black"/>
<path d="M41.4207 94.185H24.1537C23.0752 94.185 22.2006 95.0596 22.2006 96.1381C22.2006 97.2166 23.0752 98.0912 24.1537 98.0912H41.4207C42.4992 98.0912 43.3738 97.2166 43.3738 96.1381C43.3738 95.0596 42.4994 94.185 41.4207 94.185Z" fill="black"/>
<path d="M15.8338 108.711C15.4707 108.348 14.9668 108.138 14.4531 108.138C13.9395 108.138 13.4355 108.347 13.0723 108.711C12.709 109.074 12.5 109.578 12.5 110.092C12.5 110.605 12.7088 111.109 13.0723 111.472C13.4357 111.836 13.9395 112.045 14.4531 112.045C14.9668 112.045 15.4707 111.836 15.8338 111.472C16.1971 111.109 16.4062 110.605 16.4062 110.092C16.4062 109.578 16.1973 109.074 15.8338 108.711Z" fill="black"/>
<path d="M41.4207 108.139H24.1537C23.0752 108.139 22.2006 109.013 22.2006 110.092C22.2006 111.171 23.0752 112.045 24.1537 112.045H41.4207C42.4992 112.045 43.3738 111.171 43.3738 110.092C43.3738 109.013 42.4994 108.139 41.4207 108.139Z" fill="black"/>
<path d="M15.8338 122.664C15.4707 122.301 14.9668 122.094 14.4531 122.094C13.9395 122.094 13.4355 122.301 13.0723 122.664C12.709 123.029 12.5 123.533 12.5 124.047C12.5 124.56 12.7088 125.062 13.0723 125.426C13.4355 125.791 13.9395 126 14.4531 126C14.9668 126 15.4707 125.791 15.8338 125.426C16.1971 125.062 16.4062 124.56 16.4062 124.047C16.4062 123.533 16.1973 123.029 15.8338 122.664Z" fill="black"/>
<path d="M41.4207 122.093H24.1537C23.0752 122.093 22.2006 122.968 22.2006 124.046C22.2006 125.125 23.0752 125.999 24.1537 125.999H41.4207C42.4992 125.999 43.3738 125.125 43.3738 124.046C43.3738 122.968 42.4994 122.093 41.4207 122.093Z" fill="black"/>
<path d="M14.4531 136.047C13.9395 136.047 13.4355 136.256 13.0723 136.619C12.709 136.983 12.5 137.486 12.5 138C12.5 138.514 12.7088 139.018 13.0723 139.381C13.4355 139.744 13.9395 139.953 14.4531 139.953C14.9668 139.953 15.4707 139.744 15.8338 139.381C16.1973 139.018 16.4062 138.514 16.4062 138C16.4062 137.486 16.1973 136.982 15.8338 136.619C15.4707 136.256 14.9668 136.047 14.4531 136.047Z" fill="black"/>
<path d="M41.4207 136.047H24.1537C23.0752 136.047 22.2006 136.921 22.2006 138C22.2006 139.079 23.0752 139.953 24.1537 139.953H41.4207C42.4992 139.953 43.3738 139.079 43.3738 138C43.3738 136.921 42.4994 136.047 41.4207 136.047Z" fill="black"/>
<path d="M37.1094 159.094C36.5957 159.094 36.0918 159.303 35.7285 159.666C35.3652 160.029 35.1562 160.533 35.1562 161.047C35.1562 161.561 35.365 162.064 35.7285 162.428C36.0918 162.791 36.5957 163 37.1094 163C37.623 163 38.127 162.791 38.49 162.428C38.8535 162.064 39.0625 161.561 39.0625 161.047C39.0625 160.533 38.8535 160.029 38.49 159.666C38.127 159.303 37.623 159.094 37.1094 159.094Z" fill="black"/>
</g>
<line x1="161" x2="161" y2="225" stroke="#6C6C6C" stroke-width="6"/>
<g clip-path="url(#clip1)">
<path d="M313.399 148.025L274.187 108.812L228.374 63H224.794L224.063 64.8576C222.134 69.7607 221.309 74.7756 221.679 79.3594C222.101 84.5844 224.086 89.108 227.42 92.4418L263.184 128.205L267.901 123.488L300.964 160.46C304.253 163.749 309.914 163.944 313.399 160.46C316.827 157.031 316.827 151.453 313.399 148.025Z" fill="black"/>
<path d="M246.611 119.922L218.601 147.932C215.173 151.36 215.173 156.939 218.601 160.367C221.858 163.623 227.491 163.911 231.036 160.367L259.046 132.357L246.611 119.922Z" fill="black"/>
<path d="M311.753 79.6502L295.864 95.5389L291.719 91.3939L307.607 75.5051L303.462 71.3602L287.574 87.2488L283.429 83.1039L299.318 67.2152L295.173 63.0705L274.448 83.7951C271.913 86.3305 270.399 89.6969 270.185 93.2746C270.131 94.1811 269.926 95.0727 269.585 95.9207L283.047 109.383C283.896 109.042 284.787 108.837 285.694 108.783C289.271 108.569 292.638 107.055 295.173 104.52L315.898 83.7953L311.753 79.6502Z" fill="black"/>
</g>
<defs>
<clipPath id="clip0">
<rect width="100" height="100" fill="white" transform="translate(0 63)"/>
</clipPath>
<clipPath id="clip1">
<rect width="100" height="100" fill="white" transform="translate(216 63)"/>
</clipPath>
</defs>
</svg>
